HIERARCHY
ROOT reference
{
	OFFSET 0.000000 0.000000 0.000000
	CHANNELS 6 Xposition Yposition Zposition Xrotation Yrotation Zrotation
	JOINT root
	{
		OFFSET 0.000000 88.453102 0.000000
		CHANNELS 3 Xrotation Yrotation Zrotation
		JOINT Hips
		{
			OFFSET 0.000000 0.000000 0.000000
			CHANNELS 3 Xrotation Yrotation Zrotation
			JOINT Spine
			{
				OFFSET 0.023248 -0.106346 0.014914
				CHANNELS 3 Xrotation Yrotation Zrotation
				JOINT Spine1
				{
					OFFSET -6.171420 17.390305 -1.979699
					CHANNELS 3 Xrotation Yrotation Zrotation
					JOINT Spine2
					{
						OFFSET -4.335810 17.853302 -2.644548
						CHANNELS 3 Xrotation Yrotation Zrotation
						JOINT Neck
						{
							OFFSET -5.395692 17.023605 -5.060850
							CHANNELS 3 Xrotation Yrotation Zrotation
							JOINT Head
							{
								OFFSET -4.080802 9.440048 -5.217607
								CHANNELS 3 Xrotation Yrotation Zrotation
								End Site
								{
									OFFSET 0.000000 0.100006 0.000000
								}
							}
						}
						JOINT RightShoulder
						{
							OFFSET -3.110023 16.903595 -7.893250
							CHANNELS 3 Xrotation Yrotation Zrotation
							JOINT RightArm
							{
								OFFSET 8.156348 -2.780106 -13.577601
								CHANNELS 3 Xrotation Yrotation Zrotation
								JOINT RightForeArm
								{
									OFFSET 3.124026 -10.247902 -27.384003
									CHANNELS 3 Xrotation Yrotation Zrotation
									JOINT RightHand
									{
										OFFSET -11.957903 -0.720329 -21.860703
										CHANNELS 3 Xrotation Yrotation Zrotation
										End Site
										{
											OFFSET 0.000000 0.099998 0.000000
										}
									}
								}
							}
						}
						JOINT LeftShoulder
						{
							OFFSET -7.690870 17.132996 -2.240108
							CHANNELS 3 Xrotation Yrotation Zrotation
							JOINT LeftArm
							{
								OFFSET -8.776609 -0.727722 13.455400
								CHANNELS 3 Xrotation Yrotation Zrotation
								JOINT LeftForeArm
								{
									OFFSET 4.752974 -20.146797 20.885000
									CHANNELS 3 Xrotation Yrotation Zrotation
									JOINT LeftHand
									{
										OFFSET -15.534903 -12.260300 -15.157598
										CHANNELS 3 Xrotation Yrotation Zrotation
										End Site
										{
											OFFSET 0.000000 0.099998 0.000000
										}
									}
								}
							}
						}
					}
				}
			}
			JOINT RightUpLeg
			{
				OFFSET 6.101910 2.035873 -7.069730
				CHANNELS 3 Xrotation Yrotation Zrotation
				JOINT RightLeg
				{
					OFFSET 16.308197 -38.651100 -16.350403
					CHANNELS 3 Xrotation Yrotation Zrotation
					JOINT RightFoot
					{
						OFFSET 20.994205 -35.411598 0.913733
						CHANNELS 3 Xrotation Yrotation Zrotation
						JOINT RightToe
						{
							OFFSET 3.367634 -14.765000 -9.736179
							CHANNELS 3 Xrotation Yrotation Zrotation
							End Site
							{
								OFFSET 0.000000 0.100000 0.000000
							}
						}
					}
				}
			}
			JOINT LeftUpLeg
			{
				OFFSET -6.101910 -2.035858 7.069720
				CHANNELS 3 Xrotation Yrotation Zrotation
				JOINT LeftLeg
				{
					OFFSET -16.837000 -41.541599 -4.243487
					CHANNELS 3 Xrotation Yrotation Zrotation
					JOINT LeftFoot
					{
						OFFSET 17.995199 -36.779202 4.363108
						CHANNELS 3 Xrotation Yrotation Zrotation
						JOINT LeftToe
						{
							OFFSET -16.049000 -7.612780 -2.935208
							CHANNELS 3 Xrotation Yrotation Zrotation
							End Site
							{
								OFFSET 0.000000 0.100000 0.000000
							}
						}
					}
				}
			}
		}
	}
}
MOTION
Frames: 9
Frame Time: 0.041667
-42.179298 0.000000 7.464181 -0.000000 0.000000 -0.000000 0.681893 -4.822568 -2.523705 -4.681926 -1.728254 -4.603372 0.231432 2.726632 2.774060 1.291871 1.615983 3.861447 0.984186 1.314043 2.488273 -0.367978 0.619671 0.996044 -1.143424 1.197837 1.440405 1.997763 -2.325481 1.466732 -3.249564 7.493177 -2.194172 -0.155722 -0.302279 0.094853 1.378171 0.386166 1.616834 -0.428168 -2.245946 -0.181460 -6.566477 -0.322131 -3.713528 2.647305 -1.238851 -1.734464 2.089421 1.297422 1.468116 -1.188144 -0.070384 -15.859781 -3.645771 -2.183134 1.329014 -1.544792 -2.066513 -25.806015 -7.332928 8.685148 39.385128 -0.906422 5.630328 7.424666 1.732890 -0.091575 -7.034630 6.594471 9.244898 34.910200 -5.618016 0.969120 -2.059902 
-51.370098 0.000000 7.055634 -0.000000 0.000000 -0.000000 0.355764 -3.645186 -2.660073 -5.167792 -1.883274 -5.081333 0.490833 2.734358 2.880359 1.688780 1.498898 4.043285 1.254500 1.236030 2.613643 -0.172042 0.511040 0.932168 -0.773560 0.998685 1.438585 2.078802 -1.674697 1.429621 -1.991639 6.517237 -1.663415 -0.149973 -0.291119 0.091371 1.186896 0.294287 1.277531 -0.315710 -1.705452 -0.124979 -6.520181 0.237440 -3.691193 2.613573 -1.222456 -1.712567 2.374118 1.514679 1.849900 -1.697373 -2.933305 -14.445370 -1.850588 -1.094001 0.689668 5.776167 2.577172 -19.701991 -2.081505 13.294655 42.628153 -2.250418 7.349774 5.551988 3.372465 -0.378113 -13.776042 4.855470 7.598051 32.137184 -0.481298 -0.135616 2.777824 
-57.067196 0.000000 11.342317 -0.000000 0.000000 -0.000000 0.045030 -3.032273 -2.454707 -5.422857 -1.962904 -5.332263 0.782115 2.797562 2.807454 2.091406 1.539122 3.957698 1.528116 1.247233 2.547777 0.108734 0.509086 0.841855 -0.231518 0.977132 1.452870 2.147356 -0.811055 1.349614 -0.992641 5.220456 -1.570893 -0.043667 -0.084636 0.026645 0.946534 0.149320 0.891589 -0.234418 -0.894409 -0.111026 -6.577778 1.322118 -3.402987 2.677283 -1.253440 -1.753897 2.793546 2.153508 2.348423 -0.659831 -6.766319 -13.302137 -2.225270 -1.319100 0.825557 19.993168 12.119792 -17.827881 -6.535791 7.391373 30.369125 -3.161188 8.253241 2.434323 4.673274 -0.751610 -19.248887 5.621739 7.045700 32.265943 -1.706854 -0.039929 1.767084 
-62.013195 0.000000 13.985917 -0.000000 0.000000 -0.000000 -0.133249 -3.564219 -1.746099 -5.014932 -1.834959 -4.930955 0.824463 2.705919 2.457947 2.049090 1.602638 3.460200 1.491994 1.260471 2.207356 0.456433 0.799272 0.648929 0.511007 1.490138 1.336166 3.127086 -0.102477 1.825402 -0.907596 4.883414 -2.708577 0.012013 0.023260 -0.007337 0.868886 0.077232 0.730751 -0.050343 1.346565 -0.137043 -5.701486 2.664809 -3.064713 2.455158 -1.145643 -1.609678 1.836990 0.569700 1.981451 1.785931 -8.619412 -13.004988 -5.697569 -3.459858 2.022492 30.386163 17.835316 -20.441083 -12.672332 2.374600 24.771778 -4.932112 7.280254 -3.151311 4.890690 -0.827396 -20.178737 5.863328 7.998991 35.128913 -1.458625 -0.046524 2.210570 
-67.240898 0.000000 16.284920 -0.000000 0.000000 -0.000000 -0.008194 -4.157148 -1.085696 -4.521551 -1.676001 -4.445608 0.758025 2.644681 2.149443 1.844780 1.749634 3.009028 1.348281 1.337025 1.895036 0.677296 0.898458 0.302494 1.143215 1.653931 0.866013 3.150747 0.611434 1.719807 -0.330069 4.050819 -3.452514 0.014555 0.028192 -0.008893 0.613108 -0.043090 0.280694 0.352548 2.753451 0.015615 -4.282976 4.487155 -2.602149 1.622239 -0.747596 -1.066751 0.834342 -0.767584 1.313219 3.706784 -10.451482 -11.929716 -7.654087 -4.706996 2.645215 37.877104 20.465099 -24.242037 -18.737763 -1.053032 22.189879 -6.526414 6.078230 -8.325141 4.287221 -0.626660 -17.609440 6.036893 10.317168 38.101066 -3.308238 0.017820 0.328238 
-72.223999 0.000000 18.228020 -0.000000 0.000000 -0.000000 0.335336 -4.305908 -0.684124 -3.957189 -1.488541 -3.890499 0.654148 2.539162 1.915368 1.584992 1.861465 2.663064 1.167707 1.397373 1.656892 0.704821 0.726000 -0.089031 1.467298 1.322368 0.196879 2.089510 1.187557 1.011967 0.630829 2.714455 -3.416154 -0.001414 -0.002747 0.000850 0.168483 -0.209292 -0.409676 0.850576 2.897352 0.341856 -2.616276 6.417189 -2.014502 0.212604 -0.095907 -0.140479 0.210352 -1.122680 0.724055 4.838988 -12.281452 -9.868713 -7.717274 -4.747724 2.664690 41.543065 20.888913 -27.332887 -23.024810 -2.921533 21.345801 -7.372490 5.080343 -11.917203 3.051824 -0.306342 -12.446689 6.644688 12.348876 38.745180 -6.494484 0.428269 -3.286905 
-77.007492 0.000000 19.710621 -0.000000 0.000000 -0.000000 0.836625 -3.025887 -0.439459 -3.145298 -1.208062 -3.092011 0.657465 1.962889 1.558328 1.450187 1.390374 2.179161 1.055521 1.051263 1.361358 0.420835 0.446115 -0.035571 0.898374 0.810980 0.127770 1.232976 1.024390 0.554741 -0.190066 1.812224 -2.721423 0.258334 0.498714 -0.158508 -0.269027 -0.370163 -0.792306 0.964665 2.200007 0.493444 -1.665644 6.649819 -0.682026 -1.346391 0.592730 0.894221 0.593468 0.727558 1.417857 4.954532 -11.781525 -6.917961 -7.577569 -4.657694 2.621592 40.790300 20.308813 -27.479383 -24.500107 -4.397309 15.824577 -6.693615 4.091232 -13.848561 1.173223 -0.038639 -4.757329 9.946328 8.082594 28.212469 -6.143052 0.254171 -3.300352 
-87.167992 0.000000 23.239723 -0.000000 0.000000 -0.000000 0.284422 0.663906 -1.009846 -1.154969 -0.466315 -1.135141 0.563328 0.511439 0.889345 1.015515 0.155424 1.268496 0.716637 0.167229 0.830966 0.156896 -0.207897 0.114680 0.192276 -0.386539 0.308950 0.126656 0.272336 0.037845 -0.566581 0.416343 1.073649 0.125992 0.243647 -0.077133 -0.708751 0.075810 -0.844944 0.587373 0.283520 0.400642 0.123500 3.116989 1.129105 -2.518970 1.088523 1.679187 -0.806266 -0.148260 0.320205 0.151128 -1.070880 2.111933 -3.633577 -2.175654 1.324779 15.658009 7.235538 -16.348937 1.806752 1.704122 10.037036 -2.182176 0.705337 -9.467891 -0.705260 -0.023669 2.859381 3.441512 1.185279 8.149409 -0.117964 -0.003658 0.713852 
-92.402992 0.000000 24.830824 -0.000000 0.000000 -0.000000 0.062454 0.942151 -0.913332 -0.191060 -0.078977 -0.187754 0.229079 0.060523 0.332549 0.397143 -0.098514 0.479751 0.277001 -0.042926 0.324221 0.089296 -0.177469 0.207080 -0.013409 -0.322288 0.433675 0.035339 0.150795 0.001663 -0.084201 -0.075582 1.263209 -0.031865 -0.061761 0.019460 -0.459877 0.094221 -0.567874 0.346782 0.161067 0.237094 0.384984 0.727950 1.095056 -1.430577 0.628967 0.950393 -0.647787 -0.568745 -0.027366 -0.617856 0.688346 3.053508 -1.503420 -0.886498 0.562614 5.106736 2.128036 -5.014031 2.413090 -0.243094 1.219847 -1.105087 -0.051260 -5.167115 -0.695646 -0.023105 2.820316 1.724575 0.336029 2.472347 0.083566 -0.000846 0.999770 
